HIERARCHY
ROOT Hips
{
	OFFSET 0.000000 0.000000 0.000000
	CHANNELS 6 Xposition Yposition Zposition Zrotation Yrotation Xrotation 
	JOINT LowerBack
	{
		OFFSET 0.000000 0.000000 0.000000
		CHANNELS 3 Zrotation Yrotation Xrotation
		JOINT Spine
		{
			OFFSET 0.028270 2.035590 -0.193380
			CHANNELS 3 Zrotation Yrotation Xrotation
			JOINT Spine1
			{
				OFFSET 0.056720 2.048850 -0.042750
				CHANNELS 3 Zrotation Yrotation Xrotation
				JOINT Neck
				{
					OFFSET 0.000000 0.000000 0.000000
					CHANNELS 3 Zrotation Yrotation Xrotation
					JOINT Neck1
					{
						OFFSET -0.054170 1.746240 0.172020
						CHANNELS 3 Zrotation Yrotation Xrotation
						JOINT Head
						{
							OFFSET 0.104070 1.761360 -0.123970
							CHANNELS 3 Zrotation Yrotation Xrotation
							End Site
							{
								OFFSET 0.000000 0.000000 0.000000
							}
						}
					}
				}
				JOINT LeftShoulder
				{
					OFFSET 0.000000 0.000000 0.000000
					CHANNELS 3 Zrotation Yrotation Xrotation
					JOINT LeftArm
					{
						OFFSET 3.362410 1.200890 -0.311210
						CHANNELS 3 Zrotation Yrotation Xrotation
						JOINT LeftForeArm
						{
							OFFSET 4.983000 -0.000000 -0.000000
							CHANNELS 3 Zrotation Yrotation Xrotation
							JOINT LeftHand
							{
								OFFSET 3.483560 -0.000000 -0.000000
								CHANNELS 3 Zrotation Yrotation Xrotation
								JOINT LeftFingerBase
								{
									OFFSET 0.000000 0.000000 0.000000
									CHANNELS 3 Zrotation Yrotation Xrotation
									JOINT LeftHandIndex1
									{
										OFFSET 0.715260 -0.000000 -0.000000
										CHANNELS 3 Zrotation Yrotation Xrotation
										End Site
										{
											OFFSET 0.000000 0.000000 0.000000
										}
									}
								}
								JOINT LThumb
								{
									OFFSET 0.000000 0.000000 0.000000
									CHANNELS 3 Zrotation Yrotation Xrotation
									End Site
									{
										OFFSET 0.000000 0.000000 0.000000
									}
								}
							}
						}
					}
				}
				JOINT RightShoulder
				{
					OFFSET 0.000000 0.000000 0.000000
					CHANNELS 3 Zrotation Yrotation Xrotation
					JOINT RightArm
					{
						OFFSET -3.136600 1.374050 -0.404650
						CHANNELS 3 Zrotation Yrotation Xrotation
						JOINT RightForeArm
						{
							OFFSET -5.241900 -0.000000 -0.000000
							CHANNELS 3 Zrotation Yrotation Xrotation
							JOINT RightHand
							{
								OFFSET -3.444170 -0.000000 -0.000000
								CHANNELS 3 Zrotation Yrotation Xrotation
								JOINT RightFingerBase
								{
									OFFSET 0.000000 0.000000 0.000000
									CHANNELS 3 Zrotation Yrotation Xrotation
									JOINT RightHandIndex1
									{
										OFFSET -0.622530 -0.000000 -0.000000
										CHANNELS 3 Zrotation Yrotation Xrotation
										End Site
										{
											OFFSET 0.000000 0.000000 0.000000
										}
									}
								}
								JOINT RThumb
								{
									OFFSET 0.000000 0.000000 0.000000
									CHANNELS 3 Zrotation Yrotation Xrotation
									End Site
									{
										OFFSET 0.000000 0.000000 0.000000
									}
								}
							}
						}
					}
				}
			}
		}
	}
}
}
MOTION
Frames: 7
Frame Time: 0.008333
3.069379 15.583236 1.509651 -178.461431 -73.772634 -164.633880 6.317806 -1.962347 -4.735800 0.460230 -2.636431 -3.608993 -6.682790 -2.649216 0.821109 7.467808 -5.594241 -8.047094 -3.631169 -0.266792 -0.121413 0.000000 0.000000 0.000000 9.763772 9.457687 1.331376 -42.251895 0.129839 10.176435 -0.400079 -79.194526 -0.069542 15.581931 -1.785833 -0.290478 -0.313511 0.315176 -0.000000 0.000000 0.000000 0.000000 0.000000 0.000000 0.000000 13.330003 -1.553398 1.283523 63.791133 21.194227 -24.601617 0.835999 37.452421 -0.069552 -16.882336 0.398564 -0.096112 0.155964 -0.245899 -0.000000 0.000000 0.000000 0.000000 0.000000 0.000000 0.000000 
2.894022 15.659648 1.487134 179.993150 -73.524404 -163.182501 5.561375 -1.770937 -4.575705 0.322269 -2.374577 -3.611450 -6.507664 -2.394785 0.690042 7.129513 -4.767437 -7.801023 -3.440611 -0.254449 -0.056866 0.000000 0.000000 0.000000 9.260601 9.328722 1.721524 -43.567843 0.948635 12.798756 -0.650434 -73.755836 -0.054524 14.307013 -0.502485 -0.093943 -0.297149 0.250615 0.000000 0.000000 0.000000 0.000000 0.000000 0.000000 0.000000 12.147483 -0.560928 1.115335 62.630355 22.717040 -23.828039 0.559538 39.857348 -0.076554 -16.946306 0.504334 -0.116003 0.156064 -0.270084 0.000000 0.000000 0.000000 0.000000 0.000000 0.000000 0.000000 
2.712528 15.750400 1.465281 178.488635 -73.281948 -161.755397 4.826890 -1.576336 -4.439531 0.192608 -2.111653 -3.615593 -6.317258 -2.138154 0.573979 6.750994 -4.091954 -7.624449 -3.240059 -0.241084 -0.010082 0.000000 0.000000 0.000000 8.710859 9.264313 2.085640 -44.766957 1.827082 15.243308 -0.958036 -68.494136 -0.041552 12.678106 0.849354 0.076986 -0.279642 0.189990 0.000000 0.000000 0.000000 0.000000 0.000000 0.000000 0.000000 10.870579 0.271844 0.931636 61.273161 24.132906 -23.350611 0.275700 42.368383 -0.084408 -17.067990 0.631916 -0.140101 0.155209 -0.296166 0.000000 0.000000 0.000000 0.000000 0.000000 0.000000 0.000000 
2.524078 15.855656 1.443701 177.013440 -73.052162 -160.347042 4.104943 -1.382536 -4.326722 0.069381 -1.850820 -3.622046 -6.115264 -1.883013 0.470014 6.347418 -3.570123 -7.506160 -3.034304 -0.227085 0.022190 0.000000 0.000000 0.000000 8.110373 9.278079 2.410449 -45.873389 2.785148 17.441223 -1.307142 -63.483272 -0.031171 10.746715 2.146196 0.195619 -0.261425 0.135014 0.000000 0.000000 0.000000 0.000000 0.000000 0.000000 0.000000 9.534517 0.933852 0.732329 59.745227 25.431416 -23.195328 -0.002229 44.928378 -0.092996 -17.228098 0.774842 -0.167505 0.153387 -0.323709 0.000000 0.000000 0.000000 0.000000 0.000000 0.000000 0.000000 
2.328198 15.975301 1.421977 175.567363 -72.844397 -158.965495 3.392938 -1.192575 -4.240174 -0.047753 -1.595067 -3.633122 -5.904732 -1.632983 0.371448 5.929831 -3.189487 -7.428513 -2.826705 -0.212832 0.045050 0.000000 0.000000 0.000000 7.458808 9.366279 2.685007 -46.898145 3.864095 19.311809 -1.678735 -58.784577 -0.023680 8.653779 3.270527 0.249362 -0.243656 0.086976 0.000000 0.000000 0.000000 0.000000 0.000000 0.000000 0.000000 8.161903 1.432245 0.517833 58.088280 26.586141 -23.373422 -0.261286 47.494760 -0.102111 -17.404398 0.928324 -0.197315 0.150629 -0.352198 0.000000 0.000000 0.000000 0.000000 0.000000 0.000000 0.000000 
2.124201 16.108828 1.399629 174.137790 -72.667021 -157.600252 2.683797 -1.008409 -4.186306 -0.160314 -1.346197 -3.650342 -5.689094 -1.390404 0.277245 5.512347 -2.935965 -7.376980 -2.619898 -0.198620 0.062624 0.000000 0.000000 0.000000 6.770698 9.538237 2.901701 -47.851417 5.067486 20.786820 -2.054065 -54.412551 -0.018961 6.590939 4.142746 0.245525 -0.227808 0.046577 0.000000 0.000000 0.000000 0.000000 0.000000 0.000000 0.000000 6.778340 1.777792 0.288051 56.340310 27.572382 -23.867332 -0.489793 50.036180 -0.111510 -17.581538 1.092653 -0.229428 0.147090 -0.381040 0.000000 0.000000 0.000000 0.000000 0.000000 0.000000 0.000000 
1.911629 16.255461 1.376328 172.720114 -72.525458 -156.245669 1.974296 -0.829998 -4.174439 -0.269307 -1.104428 -3.675287 -5.471756 -1.155955 0.188231 5.106684 -2.789737 -7.337953 -2.415494 -0.184673 0.078716 0.000000 0.000000 0.000000 6.063265 9.801170 3.057648 -48.735875 6.380850 21.813090 -2.416677 -50.351602 -0.016485 4.752015 4.734394 0.206014 -0.215128 0.013827 0.000000 0.000000 0.000000 0.000000 0.000000 0.000000 0.000000 5.402999 1.990203 0.043718 54.538873 28.363246 -24.646072 -0.679081 52.533657 -0.120964 -17.750875 1.270777 -0.264143 0.143001 -0.409688 0.000000 0.000000 0.000000 0.000000 0.000000 0.000000 0.000000 
